<?xml version="1.0" encoding="utf-8"?>
<!-- Generator: Adobe Illustrator 25.2.0, SVG Export Plug-In . SVG Version: 6.00 Build 0)  -->
<svg version="1.1" id="Layer_1" xmlns="http://www.w3.org/2000/svg" xmlns:xlink="http://www.w3.org/1999/xlink" x="0px" y="0px"
	 viewBox="0 0 100 125" style="enable-background:new 0 0 100 125;" xml:space="preserve">
<path d="M65.1,91V33.6c0,0,0.1-3.3-2.4-6.6c-2.5-3.4-6.1-4.3-6.1-4.3s0-0.6-0.5-1.2s-1.2-0.9-1.2-0.9V9.1c0.2,0,0.4,0,0.5-0.1
	c0.5-0.1,0.9-0.7,0.9-1.2c0-0.6,0-4.6,0-4.6s0-0.7-0.7-0.9C54.6,2,52.7,2,50.1,2l0,0c-2.7,0-4.7,0-5.6,0.3c-0.8,0.2-0.8,0.9-0.8,0.9
	s0,4,0,4.6c0,0.5,0.5,1.1,1,1.2c0.1,0,0.3,0.1,0.4,0.1v11.5c0,0-0.7,0.3-1.2,0.9c-0.4,0.6-0.5,1.2-0.5,1.2s-3.6,1-6.1,4.3
	c-2.5,3.4-2.4,6.6-2.4,6.6V91c0,0-0.1,2.6,0.8,3.9c0.9,1.3,2.3,1.8,2.3,1.8S40.4,98,50.1,98s12-1.3,12-1.3s1.4-0.5,2.3-1.8
	C65.2,93.5,65.1,91,65.1,91z M41.5,30.2c1.2-0.2,2.5-0.3,4.1-0.6c3.1-0.5,6.7-1.5,8.4-2c3.2-1,8.7,1.8,6.9,2.2
	c-0.9,0.2-3.2,0.5-8.5,0.8C47.1,31,40.5,30.3,41.5,30.2z M59.7,51c0,0-3.4,0.3-9.6,0.3c-6.1,0-9.8-0.3-9.8-0.3v-5.5
	c0,0,2.4,0.3,9.6,0.3s9.7-0.3,9.7-0.3L59.7,51L59.7,51z M61.9,42.4c0,0-5.2,0.3-11.7,0.3c-6.6,0-12-0.3-12-0.3v-5.7
	c0,0,3.8,0.3,11.7,0.3s12-0.3,12-0.3V42.4z"/>
</svg>
