<?xml version="1.0" encoding="utf-8"?>
<!-- Generator: Adobe Illustrator 25.2.0, SVG Export Plug-In . SVG Version: 6.00 Build 0)  -->
<svg version="1.1" id="Layer_1" xmlns="http://www.w3.org/2000/svg" xmlns:xlink="http://www.w3.org/1999/xlink" x="0px" y="0px"
	 viewBox="0 0 64 80" style="enable-background:new 0 0 64 80;" xml:space="preserve">
<g>
	<rect x="27" y="7" width="2" height="4"/>
	<circle cx="32" cy="36" r="1"/>
	<rect x="35" y="7" width="2" height="4"/>
	<rect x="25" y="13" width="4" height="2"/>
	<rect x="31" y="7" width="2" height="10"/>
	<path d="M47.5,24.8l-0.8-0.5c-5.8-3.8-8.5-5.8-9.3-7.3H35v2h-6v-2h-2.3c-0.8,1.5-3.5,3.5-9.3,7.3l-0.8,0.5C16.3,25,16,25.6,16,26
		l1,34c0,0.6,0.4,1,0.9,1h28.1c0.5,0,0.9-0.5,0.9-1l1-34C48,25.6,47.7,25,47.5,24.8z M45,59H19V32c0-6.1,4.9-11,11-11h4
		c6.1,0,11,4.9,11,11V59z"/>
	<rect x="25" y="3" width="14" height="2"/>
	<rect x="35" y="13" width="4" height="2"/>
	<path d="M34,23h-4c-5,0-9,4-9,9v25h22V32C43,27,39,23,34,23z M41,55H23V32c0-3.9,3.1-7,7-7h4c3.9,0,7,3.1,7,7V55z"/>
	<path d="M34,27h-4c-2.8,0-5,2.2-5,5v21h14V32C39,29.2,36.8,27,34,27z M32,29c1.7,0,3.4,0.8,4.8,2.3l-1.5,1.3
		c-1.9-2.2-4.6-2.2-6.5,0l-1.5-1.3C28.6,29.8,30.3,29,32,29z M35,36c0,1.7-1.3,3-3,3s-3-1.3-3-3s1.3-3,3-3S35,34.3,35,36z M27,41h2
		v2h-2V41z M28,51c-0.6,0-1-0.4-1-1s0.4-1,1-1s1,0.4,1,1S28.6,51,28,51z M32,51c-0.6,0-1-0.4-1-1s0.4-1,1-1c0.6,0,1,0.4,1,1
		S32.6,51,32,51z M36,51c-0.6,0-1-0.4-1-1s0.4-1,1-1s1,0.4,1,1S36.6,51,36,51z M37,47H27v-2h10V47z M37,43h-6v-2h6V43z"/>
</g>
</svg>
