<?xml version="1.0" encoding="utf-8"?>
<!-- Generator: Adobe Illustrator 25.2.0, SVG Export Plug-In . SVG Version: 6.00 Build 0)  -->
<svg version="1.1" id="Layer_1" xmlns="http://www.w3.org/2000/svg" xmlns:xlink="http://www.w3.org/1999/xlink" x="0px" y="0px"
	 viewBox="0 0 846.7 1058.3" style="enable-background:new 0 0 846.7 1058.3;" xml:space="preserve">
<style type="text/css">
	.st0{fill-rule:evenodd;clip-rule:evenodd;}
</style>
<g>
	<path class="st0" d="M687.4,487.3c42.3,96.3-1.4,208.6-97.6,250.9c-96.3,42.3-208.6-1.4-250.9-97.7L687.4,487.3z M594.1,679.7
		L534.7,612l10,91.7c2.5,23,43,9,52-6.4C599.7,692.1,599.6,685.9,594.1,679.7z M523.7,703.5l-6.1-89.4l-47.5,81
		C454.8,719.8,526,737.4,523.7,703.5z M453.4,682.5c16.3-25.5,32.6-51.1,49-76.6l-86,38.8C389.1,657.1,434.7,711.9,453.4,682.5z
		 M638.1,551.7L552.2,585c30.3,6.4,60.6,12.8,90.9,19.2C672.3,610.3,670.7,539,638.1,551.7z M636.2,624l-24.7-6.2l-64.2-16.2
		l60.7,68.7C627.1,691.6,669.6,632.3,636.2,624L636.2,624z M658.3,618.8c20.9,25.2-12.5,75.3-43.2,72.5c-1.7,32-58.3,54-79.5,31
		c-17.3,28.8-80.5,15.9-84-17.2c-37.8,16.3-87.7-54.4-41.8-75.1c73.9-33.4,147-64.1,222.5-93.4C683.3,516.7,695.4,603.6,658.3,618.8
		z M370,234.7c6.8-147.4,38.8-84,99.9-153.8C475.6,87.3,534.6,241.1,370,234.7L370,234.7z M327.3,121.2
		c17.9,15.1,17.4,78.6,8.5,157.1c17.4-3.9,35.4-5.9,54-5.9c126.2,0,230.3,94.8,244.9,217.1L382,600.5l-11.8-33.8l-10.9,43.8
		l-29.2,12.8l18.5-63.9l-93.2,76.8c-29.6,24.4,48,79.5,59.6,39.2l5.6-19.5c6,10.3,12.8,20,20.1,29.1c-4.5,18.4,12.2,26.3,27.5,28.3
		c23.6,20.5,51.2,35.8,80.6,45.2C294.5,796.5,143.1,680,143.1,519c0-109.5,71.4-202.4,170.2-234.6c-17.3-69.5-40.5-122.1-71.1-155.9
		C215.3,98.9,293.1,92.4,327.3,121.2L327.3,121.2z M345,500.1l-47.2-115c-15-36.6-89.1,21.1-51.4,47L345,500.1z M333.6,519.7
		l-105-66.6c-31.5-20.1-57.6,72.1-13.1,70.5L333.6,519.7z M335.5,542.4l-121.1,8.9c-37.5,2.8-4.9,94.1,29.2,66.3L335.5,542.4z"/>
</g>
</svg>
