<?xml version="1.0" encoding="utf-8"?>
<!-- Generator: Adobe Illustrator 25.2.0, SVG Export Plug-In . SVG Version: 6.00 Build 0)  -->
<svg version="1.1" id="Layer_1" xmlns="http://www.w3.org/2000/svg" xmlns:xlink="http://www.w3.org/1999/xlink" x="0px" y="0px"
	 viewBox="0 0 512 640" style="enable-background:new 0 0 512 640;" xml:space="preserve">
<path d="M272,248H64c-4.4,0-8,3.6-8,8c0,0.2,0,0.4,0,0.6l14.5,209.6C71.7,483,85.6,496,102.4,496h131.2c16.8,0,30.7-13,31.9-29.8
	L280,256.5c0.3-4.4-3-8.2-7.4-8.5C272.4,248,272.2,248,272,248z M120.7,408h94.6c-4.4,26.1-29.2,43.7-55.3,39.3
	C139.9,443.9,124.1,428.1,120.7,408z M120.7,392c4.4-26.1,29.2-43.7,55.3-39.3c20.1,3.4,35.9,19.2,39.3,39.3H120.7z M263.4,264
	l-8.8,128h-23.1c-4.4-35.1-36.4-59.9-71.5-55.5c-29,3.6-51.9,26.5-55.5,55.5H81.4l-8.8-128H263.4z M233.6,480H102.4
	c-8.4,0-15.4-6.5-16-14.9l-1.3-18.4l22.2,15.8c1.4,1,3,1.5,4.6,1.5h112c1.7,0,3.3-0.5,4.6-1.5l22.2-15.8l-1.3,18.4
	C249,473.5,242,480,233.6,480z"/>
<path d="M280,496h112c17.7,0,32-14.3,32-32V176c0-4.1-3.1-7.5-7.1-7.9l-29.3-3.3c-17.2-1.9-29.8-17.2-28.4-34.4
	c0.5-6.2,0.8-12.3,0.8-18.3c0-16.3-1.9-32.5-5.6-48.4c3.3-1,5.6-4.1,5.6-7.6V24c0-4.4-3.6-8-8-8h-80c-4.4,0-8,3.6-8,8v32
	c0,3.5,2.3,6.6,5.6,7.6c-3.7,15.9-5.6,32.1-5.6,48.4c0,6,0.3,12.2,0.8,18.3c1.4,17.3-11.2,32.5-28.4,34.4l-29.3,3.3
	c-4.1,0.4-7.1,3.9-7.1,8v48c0,4.4,3.6,8,8,8l0,0c4.4,0,8-3.6,8-8v-8h192v200H280V496z M343.8,104h-63.7c0.6-13.5,2.5-26.9,5.9-40
	H338C341.3,77.1,343.3,90.5,343.8,104z"/>
<path d="M375.7,286.5l0.1-0.1c2.9-3.3,2.5-8.3-0.8-11.2c-0.2-0.2-0.4-0.3-0.6-0.5c-17.2-12.1-39-18.7-62.3-18.7
	c-2.9,0-5.9,0.1-8.8,0.3c-4.3,0.3-7.6,4.2-7.2,8.5c0,0.2,0,0.4,0.1,0.5l0,0.2c0.6,4.1,4.3,7.1,8.5,6.7c2.5-0.2,5-0.3,7.5-0.3
	c20.1,0,38.7,5.6,53.2,15.8C368.5,290.1,373.1,289.6,375.7,286.5z"/>
<path d="M312,384c16.6,0,32.3-4.7,44.2-13.2C369,361.7,376,349.3,376,336s-7-25.7-19.8-34.8c-11.9-8.5-27.6-13.2-44.2-13.2
	c-3,0-6,0.2-9,0.5c-4.4,0.5-7.5,4.4-7,8.8c0,0.3,0.1,0.5,0.1,0.8l0,0c0.9,4,4.6,6.7,8.6,6.3c2.4-0.2,4.8-0.4,7.3-0.4
	c26,0,48,14.7,48,32s-22,32-48,32c-4.9,0-9.8-0.5-14.6-1.5c-4-0.9-7.9,1.4-9.2,5.3l0,0c-1.4,4.2,0.8,8.7,4.9,10.1
	c0.3,0.1,0.5,0.2,0.8,0.2C299.9,383.4,305.9,384,312,384z"/>
<path d="M296,328L296,328c4.4,0,8,3.6,8,8l0,0c0,4.4-3.6,8-8,8l0,0c-4.4,0-8-3.6-8-8l0,0C288,331.6,291.6,328,296,328z"/>
<path d="M328,328L328,328c4.4,0,8,3.6,8,8l0,0c0,4.4-3.6,8-8,8l0,0c-4.4,0-8-3.6-8-8l0,0C320,331.6,323.6,328,328,328z"/>
</svg>
