<?xml version="1.0" encoding="utf-8"?>
<!-- Generator: Adobe Illustrator 25.2.0, SVG Export Plug-In . SVG Version: 6.00 Build 0)  -->
<svg version="1.1" id="Layer_1" xmlns="http://www.w3.org/2000/svg" xmlns:xlink="http://www.w3.org/1999/xlink" x="0px" y="0px"
	 viewBox="0 0 512 640" style="enable-background:new 0 0 512 640;" xml:space="preserve">
<g>
	<path d="M200,424h112v-48H200V424z M264,392h16v16h-16V392z M232,392h16v16h-16V392z"/>
	<polygon points="200,360 312,360 312,337.1 200,351.1 	"/>
	<polygon points="297.8,88 301.8,72 210.2,72 214.2,88 	"/>
	<path d="M273.7,47.3C268.6,37.2,262.6,32,256,32c-10.5,0-17.6,13.4-21.4,24h42.8C276.3,53,275.1,50.1,273.7,47.3z"/>
	<path d="M200,269.1v65.8l18-2.3c-7-21,4.3-43.6,25.3-50.6s43.6,4.3,50.6,25.3c1.4,4.1,2.1,8.4,2.1,12.7c0,1,0,2-0.1,3l16.1-2v-51.8
		c-9.5-4.1-33-13.1-56-13.1S209.5,265,200,269.1z"/>
	<path d="M335.8,196.5L282.7,150c-1.7-1.4-2.7-3.5-2.8-5.8c-0.1-2.2,0.8-4.3,2.4-5.8c0.6-0.7,5.7-6.7,5.7-18.4
		c0.1-5.6-1.2-11.1-4-16h-56c-2.8,4.9-4.2,10.4-4,16c0,11.7,5.1,17.7,5.7,18.4c1.6,1.5,2.5,3.6,2.4,5.8c-0.1,2.2-1.1,4.4-2.8,5.8
		l-53.1,46.4c-5.2,4.6-8.2,11.1-8.2,18.1V464c0,8.8,7.2,16,16,16h144c8.8,0,16-7.2,16-16V214.5C344,207.6,341,201,335.8,196.5z
		 M248,176h16v16h-16V176z M256,208c16,0,33.3,2.8,51.4,8.4l-4.7,15.3c-16.6-5.1-32.3-7.7-46.7-7.7c-14.1,0-29.5,2.5-45.7,7.3
		l-4.6-15.3C223.4,210.7,240.3,208,256,208z M328,432c0,4.4-3.6,8-8,8H192c-4.4,0-8-3.6-8-8V264c0-3,1.7-5.8,4.4-7.2
		c1.4-0.7,34.1-16.8,67.6-16.8s66.2,16.2,67.6,16.8c2.7,1.4,4.4,4.1,4.4,7.2V432z"/>
	<path d="M280,320c0-13.3-10.7-24-24-24s-24,10.7-24,24c0,3.7,0.8,7.3,2.5,10.7l45-5.6C279.8,323.4,280,321.7,280,320z"/>
</g>
</svg>
