<?xml version="1.0" encoding="utf-8"?>
<!-- Generator: Adobe Illustrator 25.2.0, SVG Export Plug-In . SVG Version: 6.00 Build 0)  -->
<svg version="1.1" id="Layer_1" xmlns="http://www.w3.org/2000/svg" xmlns:xlink="http://www.w3.org/1999/xlink" x="0px" y="0px"
	 viewBox="0 0 512 640" style="enable-background:new 0 0 512 640;" xml:space="preserve">
<g>
	<path d="M136,499.3V528h224v-28.7L348.7,488H168v-16h176.8l10.3-95.1c3.2-27.6,4.9-55.3,4.9-83c0-24-15.3-45.3-38.1-52.8l-27.2-9.1
		H224v-16h64v-16.2c0-9.8-1.2-19.6-3.6-29.1l-2.7-10.7H232v-16h45.8l-4-16h-51.5l-10.7,42.7c-2.4,9.5-3.6,19.3-3.6,29.1V224
		c0,3.4-2.2,6.5-5.5,7.6l-28.4,9.5c-22.8,7.6-38.1,28.9-38.1,52.8c0,27.7,1.6,55.4,4.9,83L152,479.1c0.3,2.4-0.6,4.8-2.3,6.5
		L136,499.3z M172.1,281c47.2-26.2,104.6-26.2,151.8,0c2.9,1.6,4.5,4.9,4,8.2l-24,152c-0.6,3.9-4,6.8-7.9,6.8h-96
		c-3.9,0-7.3-2.9-7.9-6.8l-24-152C167.6,285.9,169.2,282.6,172.1,281z"/>
	<path d="M289.2,432l22-139.6c-39.7-20.1-86.7-20.1-126.4,0l22,139.6H289.2z M272,416h-48v-16h48V416z M277.7,370.3l-11.3,11.3
		L248,363.3l-18.3,18.3l-11.3-11.3l18.3-18.3l-18.3-18.3l11.3-11.3l18.3,18.3l18.3-18.3l11.3,11.3L259.3,352L277.7,370.3z
		 M248,293.3c13.3,0,26.5,2.1,39.1,6.3l-5,15.2c-22.1-7.3-46-7.3-68.1,0l-5-15.2C221.5,295.5,234.7,293.3,248,293.3L248,293.3z"/>
	<path d="M216,112h64l0-32h-64V112z"/>
</g>
</svg>
