<?xml version="1.0" encoding="utf-8"?>
<!-- Generator: Adobe Illustrator 25.2.0, SVG Export Plug-In . SVG Version: 6.00 Build 0)  -->
<svg version="1.1" id="Layer_1" xmlns="http://www.w3.org/2000/svg" xmlns:xlink="http://www.w3.org/1999/xlink" x="0px" y="0px"
	 viewBox="0 0 64 80" style="enable-background:new 0 0 64 80;" xml:space="preserve">
<path d="M43.8,40.7c-0.2,0.1-0.4,0.3-0.5,0.4c-0.2,0.1-0.4,0.3-0.6,0.4c-0.2,0.1-0.4,0.2-0.6,0.3c-0.8,0.4-1.6,0.8-2.4,1.1
	c-0.8,0.3-1.7,0.6-2.6,0.8c-0.4,0.1-0.9,0.2-1.3,0.2c-0.2,0-0.5,0.1-0.7,0.1h-0.2c-0.1,0-0.1,0-0.2,0c-0.1,0-0.2,0-0.3,0h-0.3
	c-0.1,0-0.2,0-0.3,0s-0.1,0-0.2,0h-0.2c-0.1,0-0.2,0-0.3,0s-0.2,0-0.3,0s-0.2,0-0.3,0h-0.2h-0.2c-0.1,0-0.2,0-0.3,0
	c-0.2,0-0.5-0.1-0.7-0.1s-0.4-0.1-0.7-0.1c-0.4-0.1-0.9-0.2-1.3-0.4c-0.2-0.1-0.4-0.2-0.6-0.2c-0.1,0-0.2-0.1-0.3-0.1
	c-0.1,0-0.2-0.1-0.3-0.1c-0.2-0.1-0.4-0.2-0.6-0.3c-0.1,0-0.2-0.1-0.3-0.1l-0.3-0.2c-0.8-0.4-1.6-0.9-2.3-1.4l-0.3-0.2
	c-0.1-0.1-0.2-0.1-0.3-0.2L23.1,40c-0.3-0.2-0.7-0.5-1-0.7L21.6,39l-0.1-0.1l-0.1-0.1L21,38.6l-0.3-0.2l-0.1-0.1l-0.1-0.1L19.9,38
	l-0.1-0.1l-0.1-0.1l-0.3-0.1c0,0-0.1,0-0.1-0.1c-0.2-0.1-0.3-0.2-0.5-0.2l-0.6-0.3c-0.1,0-0.2-0.1-0.3-0.1l-0.3-0.1
	c-0.8-0.3-1.6-0.6-2.4-0.8L15,36c-0.1,0-0.2-0.1-0.3-0.1L14,35.8c-0.2,0-0.4-0.1-0.6-0.1h-0.2H13h-0.3c-0.8-0.1-1.7-0.2-2.5-0.2
	c-0.1,0-0.2,0-0.3,0H9.6c-0.2,0-0.4,0-0.6,0c-0.1,0-0.2,0-0.3,0s-0.2,0-0.3,0H8.1c-0.1,0-0.1,0-0.2,0H7.7c-0.4,0.1-0.8,0.2-1.2,0.3
	c-0.2,0.1-0.4,0.1-0.6,0.2c-0.1,0-0.3,0.1-0.4,0.1c0,0,0,0-0.1,0c-0.2,3.1,1.1,6.3,3.8,9.1c3.1,3.2,7.7,5.6,12.9,6.6
	s10.3,0.5,14.4-1.3c4-1.8,6.5-4.7,7.2-8.1C43.8,42,43.8,41.3,43.8,40.7L43.8,40.7z"/>
<path d="M6.4,35.7c0.4-0.1,0.8-0.3,1.3-0.4h0.2c0.1,0,0.1,0,0.2,0l0.3-0.1c0.1,0,0.2,0,0.3-0.1c0.1,0,0.2,0,0.3-0.1
	c0.2,0,0.4-0.1,0.7-0.1H10c0.1,0,0.2,0,0.3,0c0.9-0.1,1.8-0.1,2.6,0h0.3h0.2h0.2c0.2,0,0.4,0,0.7,0.1l0.7,0.1c0.1,0,0.2,0,0.3,0.1
	l0.3,0.1c0.9,0.2,1.7,0.4,2.6,0.7l0.3,0.1c0.1,0,0.2,0.1,0.3,0.1l0.6,0.2c0.2,0.1,0.4,0.2,0.6,0.3l0.3,0.1c0.1,0,0.1,0,0.2,0.1
	l0.2,0.1l0.6,0.3c0,0,0.1,0,0.1,0.1l0.1,0.1l0.3,0.2l0.3,0.2l0.1,0.1l0.1,0.1l0.5,0.3l0,0c0.4,0.2,0.8,0.5,1.1,0.7l0.5,0.3
	c0.1,0.1,0.2,0.1,0.3,0.2l0.3,0.2l0.1,0.1l0.1,0.1l0.3,0.2c0.1,0.1,0.2,0.1,0.3,0.1l0.3,0.1c0.1,0,0.2,0.1,0.3,0.1
	c0.1,0,0.2,0.1,0.3,0.1l0.3,0.1c0,0,0.1,0,0.1,0.1l0.1,0.1l0.3,0.1c0.1,0,0.2,0.1,0.3,0.1c0.2,0.1,0.4,0.1,0.6,0.2
	c0.1,0,0.2,0.1,0.3,0.1c0.1,0,0.2,0.1,0.3,0.1c0.2,0.1,0.4,0.1,0.6,0.2c0.1,0,0.2,0.1,0.3,0.1l0.3,0.1c0.1,0,0.2,0,0.3,0.1
	c0.1,0,0.2,0,0.3,0.1c0.4,0.1,0.8,0.1,1.2,0.2c0.4,0.1,0.8,0.1,1.2,0.1c0.1,0,0.2,0,0.3,0h0.2h0.2c0.1,0,0.2,0,0.3,0h0.3
	c0.1,0,0.2,0,0.3,0s0.1,0,0.2,0h0.2c0.2,0,0.4,0,0.6,0c0.4,0,0.8,0,1.2-0.1c0.8-0.1,1.6-0.2,2.5-0.4c0.8-0.2,1.6-0.4,2.4-0.6
	c0.4-0.1,0.8-0.3,1.2-0.4c0.2-0.1,0.4-0.1,0.6-0.2c0.1,0,0.1-0.1,0.2-0.1v-0.1c-0.2-2.6-1.5-5.3-3.8-7.7c-3.1-3.2-7.7-5.6-12.9-6.6
	s-10.3-0.5-14.4,1.3c-4,1.8-6.5,4.7-7.2,8.1c-0.1,0.3-0.1,0.5-0.1,0.8c0.1-0.1,0.2-0.1,0.4-0.2C6,35.8,6.2,35.7,6.4,35.7z"/>
<path d="M46.4,49.4c-0.2-0.4-0.5-0.7-0.7-1.1l-0.1-0.1c0,0,0-0.1-0.1-0.1l-0.1-0.3c0-0.1-0.1-0.2-0.1-0.3s-0.1-0.2-0.1-0.3
	C45.1,47,45,46.8,45,46.6l-0.1-0.3c0-0.1-0.1-0.2-0.1-0.3c-0.3-0.8-0.5-1.7-0.6-2.6L44,42.9v-0.2v-0.2c0-0.2-0.1-0.4-0.1-0.7
	l-0.1-0.7c0-0.1,0-0.2,0-0.3v-0.3c0-0.9,0-1.8,0.1-2.7v-0.3c0-0.1,0-0.2,0-0.3l0.1-0.7c0-0.2,0.1-0.4,0.1-0.7l0.1-0.3
	c0-0.1,0-0.1,0-0.2v-0.2l0.1-0.6c0-0.1,0-0.1,0-0.2v-0.2l0.1-0.3l0.1-0.3v-0.2c0-0.1,0-0.1,0-0.2l0.2-0.6l0,0
	c0.1-0.4,0.3-0.8,0.4-1.3l0.2-0.6c0-0.1,0.1-0.2,0.1-0.3l0.1-0.3v-0.1v-0.1l0.1-0.3c0-0.1,0.1-0.2,0.1-0.3l0.1-0.3
	c0-0.1,0-0.2,0.1-0.3c0-0.1,0-0.2,0.1-0.3l0.1-0.3c0-0.1,0-0.1,0-0.2v-0.2v-0.3c0-0.1,0-0.2,0-0.3c0-0.2,0-0.4,0.1-0.6
	c0-0.1,0-0.2,0-0.3c0-0.1,0-0.2,0-0.3c0-0.2,0-0.4,0-0.6c0-0.1,0-0.2,0-0.3v-0.3c0-0.1,0-0.2,0-0.3c0-0.1,0-0.2,0-0.3
	c0-0.4,0-0.8-0.1-1.2c0-0.4-0.1-0.8-0.1-1.2c0-0.1,0-0.2,0-0.3v-0.1v-0.1c0-0.1,0-0.2-0.1-0.3l0.1-0.2c0-0.1,0-0.2-0.1-0.3v-0.1
	v-0.1c0-0.2-0.1-0.4-0.2-0.6c-0.1-0.4-0.2-0.8-0.4-1.2c-0.3-0.8-0.6-1.5-0.9-2.3c-0.3-0.8-0.7-1.5-1.2-2.2c-0.2-0.4-0.4-0.7-0.7-1.1
	c-0.1-0.2-0.2-0.4-0.4-0.5c0-0.1-0.1-0.1-0.1-0.2h-0.1c-2.5,0.8-4.8,2.7-6.6,5.5c-2.4,3.8-3.6,8.8-3.4,14c0.2,5.2,1.9,10.1,4.6,13.7
	c2.7,3.5,6.1,5.3,9.5,5.1c0.3,0,0.5,0,0.8-0.1c-0.1-0.1-0.2-0.2-0.2-0.3C46.6,49.7,46.5,49.6,46.4,49.4z"/>
<path d="M58.6,30.3c-0.2-5.2-1.9-10.1-4.6-13.7c-2.7-3.5-6.1-5.3-9.5-5.1c-0.7,0-1.3,0.1-1.9,0.3l0,0c0.2,0.1,0.3,0.3,0.5,0.4
	c0.2,0.1,0.3,0.3,0.5,0.4c0.2,0.2,0.3,0.3,0.5,0.5c0.6,0.6,1.2,1.3,1.7,2.1c0.5,0.7,1,1.5,1.3,2.3c0.2,0.4,0.4,0.8,0.5,1.3
	c0.1,0.2,0.2,0.4,0.2,0.6l0.1,0.2c0,0.1,0,0.1,0,0.2S48,20,48,20.1l0.1,0.3c0,0.1,0.1,0.2,0.1,0.3c0,0.1,0,0.1,0,0.2v0.2
	c0,0.1,0,0.2,0.1,0.3c0,0.1,0,0.2,0.1,0.3c0,0.1,0,0.2,0.1,0.3v0.2v0.2c0,0.1,0,0.2,0,0.3c0,0.2,0,0.5,0,0.7s0,0.5,0,0.7
	c0,0.5,0,0.9-0.1,1.4c0,0.2-0.1,0.5-0.1,0.7c0,0.1,0,0.2,0,0.3c0,0.1,0,0.2-0.1,0.3c0,0.2-0.1,0.4-0.1,0.7c0,0.1,0,0.2-0.1,0.3
	l0,0.5c-0.2,0.9-0.5,1.7-0.8,2.6l-0.1,0.3c0,0.1-0.1,0.2-0.1,0.3l-0.2,0.6c-0.2,0.4-0.3,0.8-0.5,1.2l-0.2,0.6c0,0,0,0.1-0.1,0.1v0.2
	l-0.1,0.3l-0.1,0.3V35c0,0.1,0,0.1,0,0.2l-0.2,0.6V36c0,0.1,0,0.1,0,0.2l-0.1,0.3v0.1c0,0.2-0.1,0.3-0.1,0.5l-0.1,0.6
	c0,0.1,0,0.2-0.1,0.3v0.3C45.1,39.1,45,40,45,40.8v0.3c0,0.1,0,0.2,0,0.3V42c0,0.2,0,0.4,0,0.6v0.2V43v0.3c0.1,0.8,0.2,1.7,0.4,2.5
	c0,0.1,0,0.2,0.1,0.3l0.1,0.3c0.1,0.2,0.1,0.4,0.2,0.6c0,0.1,0.1,0.2,0.1,0.3s0.1,0.2,0.1,0.3l0.1,0.3c0,0,0,0.1,0.1,0.1l0.1,0.1
	c0.2,0.4,0.3,0.8,0.6,1.2c0.1,0.2,0.2,0.4,0.3,0.6c0.1,0.1,0.2,0.3,0.2,0.4l0,0c3.1-0.5,5.9-2.5,8-5.9
	C57.7,40.5,58.9,35.5,58.6,30.3z"/>
</svg>
