<?xml version="1.0" encoding="utf-8"?>
<!-- Generator: Adobe Illustrator 25.2.0, SVG Export Plug-In . SVG Version: 6.00 Build 0)  -->
<svg version="1.1" id="Layer_1" xmlns="http://www.w3.org/2000/svg" xmlns:xlink="http://www.w3.org/1999/xlink" x="0px" y="0px"
	 viewBox="0 0 100 125" style="enable-background:new 0 0 100 125;" xml:space="preserve">
<g>
	<path d="M27.2,5.4l-0.3,15.9c0,0,1.7-0.6,5.4-0.6c4.2,0,4.9,0.6,4.9,0.6V5.4c0,0,0.6,0.1,0.6-0.8c0,0,0.2-2.8-0.6-2.9
		c0,0-0.3-1.6-5.2-1.6c-4.5,0-4.8,1.6-4.8,1.6c-0.8,0.1-0.6,2.9-0.6,2.9C26.6,5.5,27.2,5.4,27.2,5.4z"/>
	<path d="M32,22.5c-3.5,0-5.2,0.6-5.2,0.6c-1.6,5.6-7.8,8.5-7.8,18.1v22.7v4.4v28.5c0,1.5,6.3,3.3,12.7,3.3c6.6,0,13.3-1.7,13.3-3.3
		V68.3l0-4.4l0,0.2V41.3c0-9.6-6.3-12.6-7.9-18.2C37.1,23.1,35.6,22.5,32,22.5z M42.6,68.9c0,0-4.9,0.5-10.8,0.5
		c-7.3,0-10.4-0.5-10.4-0.5V41c0,0,3.9-0.9,10.2-0.9c6.2,0,11.1,0.9,11.1,0.9S42.6,68.9,42.6,68.9z"/>
	<path d="M80.2,97l-12.1-2.6c-1.6-0.5-1.3-0.5-1.4-2v-24c0.1-2.2,0.2-3.4,1.5-4.3c15.4-10.2,11.2-17.9,8.2-38.8h0
		c0,0-3.5-2.2-10.9-2.2c-7.5,0-11.7,2.2-11.7,2.2c-3,20.9-7.2,28.6,8.2,38.8c1.4,1,1.4,2.2,1.6,4.3v24c-0.1,1.4,0.2,1.5-1.4,2L50,97
		v0.1c0,0.7,6.7,2.5,15.1,2.5S80.2,97.7,80.2,97L80.2,97z M65.1,62.1c-1.4,0-2.5-0.7-2.5-0.7c-9.4-6.2-9.8-10.9-9.2-18.4
		c0,0,3.5-1.3,11.6-1.3c8.1,0,11.8,1.3,11.8,1.3c0.6,7.1,0.2,12.2-9.2,18.4C67.6,61.5,66.5,62.1,65.1,62.1z"/>
</g>
</svg>
