<?xml version="1.0" encoding="utf-8"?>
<!-- Generator: Adobe Illustrator 25.2.0, SVG Export Plug-In . SVG Version: 6.00 Build 0)  -->
<svg version="1.1" id="Layer_1" xmlns="http://www.w3.org/2000/svg" xmlns:xlink="http://www.w3.org/1999/xlink" x="0px" y="0px"
	 viewBox="0 0 100 125" style="enable-background:new 0 0 100 125;" xml:space="preserve">
<path d="M67,44.1c-0.6-2.3-4.3-5.3-7.5-8.8c-3.4-3.7-3.9-8.3-3.9-8.4V5.6c0-1.6-2.5-2.8-5.6-2.8s-5.6,1.3-5.6,2.8v21.3
	c0,0-0.4,4.7-3.9,8.4c-3.2,3.5-6.9,6.5-7.5,8.8c-0.9,3.6,3.8,50,3.8,50s0.1,1.7,0.9,2.6c0.8,0.9,2.1,0.6,2.1,0.6l7.8-0.1l12.7,0.1
	c0,0,1.3,0.3,2.1-0.6s0.9-2.6,0.9-2.6S67.8,47.6,67,44.1z M61.3,63.5c0,0-3.1-5-10.6-5.1c-9.2-0.2-12,5.3-12,5.3l-3.2-4.3
	c0,0,3.5-8,15-7.8c10.6,0.2,13.9,7.9,13.9,7.9L61.3,63.5z"/>
</svg>
