<svg id="Layer_1" data-name="Layer 1" xmlns="http://www.w3.org/2000/svg" viewBox="0 0 139.13 71.32"><defs><style>.cls-1{fill:#e33c2e;}.cls-2{fill:#eba291;}</style></defs><g id="그룹_1" data-name="그룹 1"><path id="패스_57" data-name="패스 57" class="cls-1" d="M83.89,87.38a1.62,1.62,0,0,1-1.41-.29,7.14,7.14,0,0,0-1.36-.5l-2.1-.2c-1.56-.09-3.14-.07-4.92-.21a36.44,36.44,0,0,0-4.31.14l-1,.13-1.62-.33-.26.17-1.11.46a3,3,0,0,1-1.47,0,6.87,6.87,0,0,0-2.21-.22,14.85,14.85,0,0,0-1.87.3l-1.51.26-8,.52A2.51,2.51,0,0,1,49.25,87a3.1,3.1,0,0,0-.84-.29,2.68,2.68,0,0,1-.8.06,1.38,1.38,0,0,1-.67,0l-.76-.15c-.32-.07-.71-.37-1.12-1.13a1.49,1.49,0,0,1,0-2c.24-.63.89-1.06,2.1-1.49a14.89,14.89,0,0,1,3.3-.68l8.12-.61c2.73-.12,5.68-.2,8.73-.26s5.87,0,8.9,0,5.59.23,8.25.44a3.07,3.07,0,0,1,1.13,0,3,3,0,0,0,.93.41l.44.09a.35.35,0,0,0,.3.17,5,5,0,0,1-.2,3.23.75.75,0,0,0-.2.41,6.67,6.67,0,0,0-.64,1.45,1.74,1.74,0,0,0-1.56.48ZM76.71,50.9c.36.8.46,1.28.11,1.41a9.14,9.14,0,0,1-2.45.1c-.1.64-.63.93-1.58.79-2.74-.14-5.49-.27-8.24-.3-2.93,0-5.7.07-8,.2a14.41,14.41,0,0,1-2,.17,5.28,5.28,0,0,1-1.94-.1c-2.21-.43-3.44-.89-3.83-1.5-.57-.55-.82-1.05-.6-1.48a1,1,0,0,1,1-1h.07a6.83,6.83,0,0,0,1.63,0,2.69,2.69,0,0,0,1.18-.28,8.36,8.36,0,0,0,1.2-.38c1.14,0,3.28-.16,6.54-.23,3.08,0,6.65.06,10.52.27a24.72,24.72,0,0,1,2.72.22c.89.24,1.78.44,2.68.59Zm-7-12.47-1.27-.08c-1.49,0-3.17-.14-5.08-.21-2.14,0-4.26-.07-6.38-.17-2.34,0-4.48,0-6.6-.1s-4.06.06-5.55.06c-1.29,0-2.36.09-3.21.07a7.39,7.39,0,0,1-3.13-.47c-.21,0-.21,0-.2-.13l-.41-.07c-.21,0-.42-.06-.4-.17A7.62,7.62,0,0,1,35,35.78c-.59-.32-.3-.83.89-1.65a3.06,3.06,0,0,1,.95-.64,2.87,2.87,0,0,1,.91-.41l3-.33c2.36-.09,5.34-.09,9-.21,3.42,0,6.84-.09,10-.06L63,32.19l1.23.3c1.93,0,3.86-.09,6-.21,1.91.06,3.82.12,5.94.22l2.29.34c1.24.3,2.26.56,3.29.83A19.16,19.16,0,0,1,86.12,36a34.41,34.41,0,0,1,2.27,3.34,3,3,0,0,1,.4,1.61,4.38,4.38,0,0,1-.92,1.87l-.29.51c-.32.73-.71,1.89-1.37,3.46l-2,5q-1,2.84-2,5c-.88,1.64-1.46,2.67-1.77,3.29a1.48,1.48,0,0,0-.53.7,7,7,0,0,0-1,.75,4.12,4.12,0,0,0-1,1.07A2.72,2.72,0,0,0,77,64.19a3.17,3.17,0,0,1-2.38,1.65,13.64,13.64,0,0,1-3.61-.1,8.17,8.17,0,0,1-2.3-.35,11.22,11.22,0,0,1-2.28-.45l.8-1h0l-.8,1,.8-1h0a15.35,15.35,0,0,1,1.12-1.3A24.44,24.44,0,0,1,71.55,60h0l5.54-8.49c2.88-5.11,3.33-9.82.84-11.76a4.46,4.46,0,0,0-1.61-.78ZM58.93,65.94a1.78,1.78,0,0,0,.46.59.73.73,0,0,1,.37.71.94.94,0,0,0-.48,1,19.62,19.62,0,0,0,.62,1.9c.43,1,.74,2,1,2.84a4.47,4.47,0,0,1,.53,1.47,7.2,7.2,0,0,0,1.2,2,2.3,2.3,0,0,1,.5.8,5.15,5.15,0,0,1,.4,1.39,5.58,5.58,0,0,1,.47.69,3,3,0,0,0,1.2.88,4.46,4.46,0,0,0,2.83-1.59c.78-.6.88-1.75.55-3.38a2.18,2.18,0,0,0-.06-.88l-.18-.87a6.68,6.68,0,0,0-.11-1.67,6.27,6.27,0,0,0-.59-2.36,18,18,0,0,0-1.55-3.18,10.18,10.18,0,0,0-2.33-2.57,4,4,0,0,0-4.15.62,6.13,6.13,0,0,1-.48,1Z" transform="translate(-34.65 -32.19)"/><path id="패스_58" data-name="패스 58" class="cls-2" d="M84.63,94.18V97c0,.5.05,3.69,0,4.31a2.54,2.54,0,0,1-1.46,2,2.16,2.16,0,0,1-2.13-.14c-.32-.22-.66-.63-1-2.57A24.16,24.16,0,0,1,79.62,97h0l-2.05,0h-9a1.79,1.79,0,0,1-1.22-1.54A4.44,4.44,0,0,1,67.63,93a1.36,1.36,0,0,1,1.11-.8l13.56,0C83.76,92.12,84.63,92.88,84.63,94.18Z" transform="translate(-34.65 -32.19)"/><path id="패스_59" data-name="패스 59" class="cls-2" d="M103.28,42.29a4.55,4.55,0,0,1,1.6.84c2,1.95-.36,10-1,13.19L99.17,78.43a30.71,30.71,0,0,1-1.51,5.74c-1.42,3.11-5.15,1.47-5.17-2A31.59,31.59,0,0,1,93,78.53c.33-1.74.76-3.6,1.16-5.47L99.41,48A17.06,17.06,0,0,1,101,43.44C101.66,42.33,102.61,42,103.28,42.29ZM98.09,95.75c.35,2.18.25,5.37-1.25,6.45-1.32.93-3.86.52-4.44-2.21a13.45,13.45,0,0,1,0-5.06c.36-1.55,1.23-2,2.14-2,1.13-.07,2.36-.06,3.12,1.27A7,7,0,0,1,98.09,95.75Z" transform="translate(-34.65 -32.19)"/><path id="패스_60" data-name="패스 60" class="cls-2" d="M113.15,93.86c-.38-2.36-.68-4.6-.86-6.73s-.43-4.32-.53-6.6a2.46,2.46,0,0,1-1.54.15c-.52,0-.84-.35-1.07-1a2.12,2.12,0,0,1-.1-2,3.46,3.46,0,0,1,1.3-1.13c.74-.26,1.76-.64,3.08-1.07s2.69-.69,4.13-1.07l4.1-1,3-.55a4.11,4.11,0,0,1,1.39.2,1.73,1.73,0,0,1,.88,1.43,2.15,2.15,0,0,1-.32,1.65,2,2,0,0,1-1.36.82,10.14,10.14,0,0,1-1.64.43c-.74.2-1.54.41-2.4.56s-1.83.53-2.72.75a22.77,22.77,0,0,1-2.79.7c.06.89.14,1.64.23,2.38s.12,1.51.2,2.26c1.3-.3,2.63-.67,4-1a33.72,33.72,0,0,1,3.34-.8,1.52,1.52,0,0,1,1.9,1.56c.22,1.49-.15,2.33-1.16,2.5a10.78,10.78,0,0,1-1.48.4,10.34,10.34,0,0,1-1.88.54,13.27,13.27,0,0,1-2.14.58,14,14,0,0,1-2.13.58,16.29,16.29,0,0,0,.24,2.19c0,.75.13,1.56.23,2.38a21.92,21.92,0,0,0,4.31-.92c1.64-.43,3.32-.93,5.11-1.38a1.93,1.93,0,0,1,1.3,0,1.75,1.75,0,0,1,1,1.29c.16.86.1,1.38-.16,1.68a2.24,2.24,0,0,1-1.11.78,45.6,45.6,0,0,1-5.36,1.68c-1.86.52-3.75,1-5.65,1.29a2.26,2.26,0,0,1-2.28-.54A5.43,5.43,0,0,1,113.15,93.86Zm18.78-20.1c.21-1.87.95-2.83,2.22-2.83s1.91,1,1.75,2.83c-.16,1.26-.26,2.82-.37,4.69s-.21,4-.21,6.1-.11,4.24-.11,6.32-.05,4,0,5.51a7.44,7.44,0,0,1-.26,1.94,1.71,1.71,0,0,1-1.38,1.19c-1.48.22-2.22-.52-2.33-2.31-.11-1.41-.16-3-.16-4.76s-.05-3.5,0-5.37a5.64,5.64,0,0,1-1.58.23,12.35,12.35,0,0,1-1.7.3,2,2,0,0,1-1.33,0c-.42-.08-.69-.6-.79-1.64a3.07,3.07,0,0,1,.26-1.79,1.71,1.71,0,0,1,1.12-1,10.49,10.49,0,0,1,1.9-.6c.69-.15,1.43-.22,2.28-.37.05-1.64.16-3.2.26-4.69S131.77,74.8,131.93,73.76Zm7.26-.82a2.3,2.3,0,0,1,2.27-2.09,2.88,2.88,0,0,1,1.54.45,1.69,1.69,0,0,1,.47,1.64c-.21,1.26-.42,2.82-.58,4.76s-.42,4-.53,6.1-.26,4.25-.37,6.33-.26,3.94-.26,5.51a3.26,3.26,0,0,1-.69,1.71,2.28,2.28,0,0,1-1.43.89,1.51,1.51,0,0,1-1.59-.52,1.82,1.82,0,0,1-.53-1.64c0-1.78.11-3.72.27-5.88s.21-4.24.42-6.32.26-4.1.48-6,.31-3.5.52-4.91Z" transform="translate(-34.65 -32.19)"/><path id="패스_61" data-name="패스 61" class="cls-2" d="M162.14,74.23a27.16,27.16,0,0,1-.31,3.93,12,12,0,0,1-1.1,3.23,7.13,7.13,0,0,1-2,2.33,6,6,0,0,1-2.82,1.21,6.17,6.17,0,0,1-3.3-.21,5.84,5.84,0,0,1-2.55-1.59,6.94,6.94,0,0,1-1.71-2.8,11.28,11.28,0,0,1-.8-3.66,13.18,13.18,0,0,1,.27-3.65,10.39,10.39,0,0,1,1.1-3.29,9.19,9.19,0,0,1,1.93-2.54,6.18,6.18,0,0,1,2.86-1.27,8.19,8.19,0,0,1,3.65.16A6,6,0,0,1,160,67.67a8.57,8.57,0,0,1,1.63,2.86A12.54,12.54,0,0,1,162.14,74.23Zm-3.3.48a9.22,9.22,0,0,0-.26-2.28,7.33,7.33,0,0,0-.88-1.8,3.93,3.93,0,0,0-1.45-1,4.7,4.7,0,0,0-2.11,0A3.57,3.57,0,0,0,151.63,72a9.35,9.35,0,0,0-.61,4.19,6.54,6.54,0,0,0,1.32,3.92,2.75,2.75,0,0,0,3.08,1.16A3.37,3.37,0,0,0,158.14,79a12.36,12.36,0,0,0,.71-4.3Zm.61,21a3.74,3.74,0,0,1,.32-2.11,3.13,3.13,0,0,1,1.62-1.29c.88-.34,1.88-.63,3-1s1.94-.53,2.61-.72a.75.75,0,0,0,.54-.24c.06,0,.09-.19.11-.53a5,5,0,0,0,0-.69l-.08-.68a1.12,1.12,0,0,0-.18-.55l-.68.08a9.63,9.63,0,0,1-1.5.36,5.11,5.11,0,0,1-1.28.32,4.73,4.73,0,0,1-1.28.33,8.5,8.5,0,0,1-1.73.39l-.79.1a1.33,1.33,0,0,1-.86,0,1,1,0,0,1-.79-.36,1.06,1.06,0,0,1-.45-.86c-.27-1.29.37-2.12,1.87-2.53q1.05-.19,2.07-.48c.54-.12,1.08-.26,1.61-.43s1-.18,1.57-.3a10.3,10.3,0,0,0,1.73-.39c1.62-.37,2.77-.33,3.41.16a4.1,4.1,0,0,1,1.1,2.92,13.12,13.12,0,0,0,.14,1.65,16.32,16.32,0,0,0,.09,1.71,4.85,4.85,0,0,1-.4,2.35,3.32,3.32,0,0,1-2.36,1.33c-.89.27-1.72.5-2.39.69a10.07,10.07,0,0,0-2.21.67,1,1,0,0,0-.48.29c-.16.07-.2.25-.16.54l.11.9c0,.23,0,.34.16.44a1.34,1.34,0,0,0,.63,0,9,9,0,0,1,1.62-.37,5.59,5.59,0,0,1,1.34-.33,4.8,4.8,0,0,1,1.34-.34c.44-.11,1-.23,1.67-.37a2.18,2.18,0,0,1,1.91.17,1.73,1.73,0,0,1,.72,1.12,2.66,2.66,0,0,1-.2,1.69,3.47,3.47,0,0,1-1.63.77c-1.22.32-2.39.64-3.62.9s-2.46.53-3.63.85c-.61.13-1.17.25-1.62.31a2.77,2.77,0,0,1-1.28-.13,2.12,2.12,0,0,1-.92-.93,4.79,4.79,0,0,1-.51-1.89,14.12,14.12,0,0,1-.13-1.48c-.09-.68-.11-1.37-.14-2Zm10.37-29.76a6.08,6.08,0,0,1,.59-1.64,1.46,1.46,0,0,1,1.32-.74,2.18,2.18,0,0,1,1.64.74,2.87,2.87,0,0,1,.37,1.94c-.42,2.76-.68,5.73-.9,9s-.47,6.4-.68,9.3a5.09,5.09,0,0,1-.59,1.94,1.56,1.56,0,0,1-1.53.82,1.46,1.46,0,0,1-1.38-.75,2.52,2.52,0,0,1-.48-1.86c.11-3,.32-6.1.64-9.3S169.4,69.06,169.82,65.93Z" transform="translate(-34.65 -32.19)"/></g></svg>