<?xml version="1.0" encoding="utf-8"?>
<!-- Generator: Adobe Illustrator 25.2.0, SVG Export Plug-In . SVG Version: 6.00 Build 0)  -->
<svg version="1.1"
	 id="Layer_1" xmlns:cc="http://creativecommons.org/ns#" xmlns:dc="http://purl.org/dc/elements/1.1/" xmlns:inkscape="http://www.inkscape.org/namespaces/inkscape" xmlns:rdf="http://www.w3.org/1999/02/22-rdf-syntax-ns#" xmlns:sodipodi="http://sodipodi.sourceforge.net/DTD/sodipodi-0.dtd" xmlns:svg="http://www.w3.org/2000/svg"
	 xmlns="http://www.w3.org/2000/svg" xmlns:xlink="http://www.w3.org/1999/xlink" x="0px" y="0px" viewBox="0 0 16.9 21.2"
	 style="enable-background:new 0 0 16.9 21.2;" xml:space="preserve">
<g transform="translate(0,-280.06665)">
	<path d="M3.1,281c-0.1,0-0.2,0.1-0.2,0.3v2.1c0,0.1,0.1,0.3,0.3,0.3c0.1,0,0.1,0,0.2-0.1l0.9-0.9l1,1.1c0,0-0.1,0-0.1,0
		c-0.2,0-0.4,0.1-0.5,0.2c-0.1,0.1-0.2,0.1-0.2,0.2c0,0,0,0-0.1,0c-0.1,0.1-0.2,0.1-0.3,0.3c-0.1,0.1-0.3,0.3-0.5,0.6
		c0.6,0.2,2.4,0.7,4.8,0.7c2.2,0,4.2-0.5,5.2-0.7c-0.4-0.5-0.7-0.7-0.7-0.7c-0.1-0.1-0.2-0.2-0.3-0.3c-0.2-0.1-0.3-0.1-0.5-0.2
		c-0.1,0-0.1,0-0.2,0l2-2.2h1.7c0.4,0,0.4-0.6,0-0.5h-2l-2.4,2.7c-0.2,0-0.4,0-0.6,0H6.6c-0.2,0-0.5,0-0.7,0l-1.3-1.3l0.9-0.9
		c0.1-0.1,0.1-0.3,0-0.4c0,0-0.1-0.1-0.2-0.1L3.1,281C3.1,281,3.1,281,3.1,281L3.1,281z M6.6,284.2h3.7c0.1,0,0.1,0,0.2,0L9.8,285
		c-0.4,0-0.9,0-1.4,0c-0.5,0-1,0-1.4,0l-0.7-0.7C6.4,284.2,6.5,284.2,6.6,284.2L6.6,284.2z M11.2,284.3c0.2,0,0.3,0,0.5,0.1
		c0.2,0,0.3,0.1,0.4,0.1c0,0,0,0,0,0c0,0,0,0,0,0c-0.1,0-0.1,0.1-0.2,0.1c-0.1,0-0.2,0.1-0.4,0.1c-0.2,0.1-0.5,0.1-0.8,0.1
		L11.2,284.3z M5.6,284.3l0.6,0.6c-0.1,0-0.2,0-0.2,0c-0.2,0-0.4-0.1-0.5-0.1c-0.3-0.1-0.5-0.2-0.6-0.2c0,0,0,0,0,0c0,0,0,0,0,0
		c0.1,0,0.2-0.1,0.4-0.1C5.3,284.3,5.5,284.3,5.6,284.3L5.6,284.3z M2.8,286c-0.5,0.9-1,2.2-1,3.8c0,1.6,0.3,3.2,1.4,4.3
		s2.7,1.8,5.2,1.8c2.6,0,4.2-0.7,5.2-1.8c1-1.1,1.4-2.6,1.4-4.3c0-1.4-0.4-2.6-0.9-3.5c0,0-0.1,0.1-0.1,0.1c0,0-1.6-0.3-4.5,0.3
		C4.5,287.7,3.2,286.5,2.8,286L2.8,286z M12.7,288.7c0.1,0,0.2,0.1,0.2,0.1c0,0,0.9,1.4,0.3,2.9c-0.6,1.5-2,1.7-2,1.7
		c-0.1,0-0.3-0.1-0.3-0.2c0-0.1,0.1-0.3,0.2-0.3c0,0,0,0,0,0c0,0,1.2-0.2,1.7-1.4c0.5-1.2-0.2-2.4-0.2-2.4c-0.1-0.1,0-0.3,0.1-0.4
		C12.6,288.7,12.6,288.7,12.7,288.7C12.7,288.7,12.7,288.7,12.7,288.7z"/>
</g>
</svg>
