<?xml version="1.0" encoding="utf-8"?>
<!-- Generator: Adobe Illustrator 25.2.0, SVG Export Plug-In . SVG Version: 6.00 Build 0)  -->
<svg version="1.1" id="Layer_1" xmlns="http://www.w3.org/2000/svg" xmlns:xlink="http://www.w3.org/1999/xlink" x="0px" y="0px"
	 viewBox="0 0 512 640" style="enable-background:new 0 0 512 640;" xml:space="preserve">
<path d="M70.9,379.6c13.1,3.6,28.5,5.4,45.5,5.4c44.1,0,99.3-11.8,156.6-34.1c67.8-26.4,124.2-63,131.2-85.1
	c4.5-14.3,2.4-27.1-6.3-37.8c-9.2-11.4-23.6-14.1-48.4-9.2c-41.7,8.3-69.4,4.9-84.5-10.4c-29.4-29.8-36.5-74.8-40.8-101.7
	c-0.9-5.9-1.8-11.6-2.7-15.2c-9.7,3.7-36.4,20.5-62.5,47.6c-26,26.7-58,70-63.2,124c-0.4,4.1,0.3,12.6,1.6,18.1
	c0.7,3.3,3.1,5.9,6.2,7c1.3-0.2,2.6-0.3,3.9-0.5c138-14.5,155.3-33.2,156.8-35.1c1.2-3.1,4.7-4.6,7.8-3.4c2.7,1,4.3,3.9,3.7,6.7
	c-1.5,8-20.9,28.4-167,43.7l-1.8,0.2c-0.4,0.1-0.9,0.2-1.4,0.3l-0.3,0c-0.7,0.1-1.5,0.2-2.2,0.1l-4.2,0.6c-4.2,0.6-8.3,1.1-11.9,1.3
	c-24.3,1.4-41.5,22.9-43.5,42C41.8,361.5,51.8,374.4,70.9,379.6z"/>
<path d="M198.7,479.4L198.7,479.4l1.1-0.1c52.6-5.1,99.3-17.6,139.4-37.3c61.3-30.1,92-70.1,104.9-91.3c6.4-10.5,8.5-17.3,8.9-28
	c1-28.3-12.2-44.6-39.3-48.6c-7.6,15.5-28.1,31.2-44.8,42.1c-24.7,16.2-57.2,32.5-91.5,45.8c-37.3,14.5-75.1,25.1-109.5,30.6
	c-17,2.8-34.1,4.3-51.3,4.4c-18.2,0-34.5-2-48.9-5.9c-5.7-1.5-11.2-3.8-16.2-6.9c-5.9,3.5-18.8,11.8-28.9,23
	C17,413.6,9.5,435,15.9,452c5.4,14.1,19.2,22.6,41.2,25C108.2,482.7,155.4,483.5,198.7,479.4z"/>
<path d="M459.8,346.8c-1.6,3.5-3.4,6.9-5.4,10.1c-13.5,22.3-45.8,64.4-109.9,95.9c-24.8,12-50.8,21.3-77.6,27.5
	c6.9,0.4,13.8,0.8,20.7,1.1c59.8,3.5,116.3,6.7,169.1-15.9c11.9-5.3,22.2-13.5,30.1-23.9c10.1-13.5,13.8-28.3,10.9-44.1
	C493.2,373.8,470.8,354.8,459.8,346.8z"/>
</svg>
