<?xml version="1.0" encoding="utf-8"?>
<!-- Generator: Adobe Illustrator 25.2.0, SVG Export Plug-In . SVG Version: 6.00 Build 0)  -->
<svg version="1.1" id="Layer_1" xmlns="http://www.w3.org/2000/svg" xmlns:xlink="http://www.w3.org/1999/xlink" x="0px" y="0px"
	 viewBox="0 0 100 125" style="enable-background:new 0 0 100 125;" xml:space="preserve">
<desc>Created with Sketch.</desc>
<g>
	<path d="M58.7,5.6c2.9,0,5.2,2.2,5.2,4.9v3.4H36.1v-3.4c0-2.7,2.3-4.9,5.2-4.9H58.7z M67.2,30.1C73,31.9,80.6,34,80.6,40.5l0,45.9
		c0,4.4-3.7,8-8.2,8H27.8c-4.5,0-8.2-3.6-8.2-8l-0.1-45.9c0-6.6,6.6-8.6,12.4-10.4c2.3-0.7,4.9-1.7,7-2.3V16.7h22.2v11.2
		C63.5,28.4,64.9,29.4,67.2,30.1z M37.6,50H28c-1.5,0-2.8,1.2-2.8,2.8V75c0,1.5,1.2,2.8,2.8,2.8H72c1.5,0,2.8-1.2,2.8-2.8V52.8
		c0-1.5-1.2-2.8-2.8-2.8h-9.6c-1.8-3.2-6.6-5.6-12.4-5.6S39.4,46.8,37.6,50z"/>
</g>
</svg>
