<?xml version="1.0" encoding="utf-8"?>
<!-- Generator: Adobe Illustrator 25.2.0, SVG Export Plug-In . SVG Version: 6.00 Build 0)  -->
<svg version="1.1" id="Layer_1" xmlns="http://www.w3.org/2000/svg" xmlns:xlink="http://www.w3.org/1999/xlink" x="0px" y="0px"
	 viewBox="0 0 66 82.5" style="enable-background:new 0 0 66 82.5;" xml:space="preserve">
<g>
	<g>
		<g>
			<rect x="9.3" y="14.8" width="9.8" height="9.5"/>
		</g>
		<g>
			<rect x="9.3" y="26.4" width="9.8" height="9.5"/>
		</g>
		<g>
			<path d="M13.8,46.7v-0.6c0-2.8,2.7-4.8,5.3-4.2V38H9.3v11.1C9.8,49,13.8,49.8,13.8,46.7z"/>
		</g>
		<g>
			<rect x="21.3" y="14.8" width="9.6" height="9.5"/>
		</g>
		<g>
			<rect x="21.3" y="26.4" width="9.6" height="9.5"/>
		</g>
		<g>
			<path d="M22.5,47.2c0,0.1-0.1,1.7,1.6,1.7c0.9,0,1.6-0.6,1.6-1.5c0-0.1-0.6-4.6,3.6-4.6c0.5,0,1,0.1,1.5,0.3v-5h-9.6v5.1
				C22.9,44.7,22.4,46.8,22.5,47.2z"/>
		</g>
		<g>
			<rect x="33" y="14.8" width="9.6" height="9.5"/>
		</g>
		<g>
			<rect x="33" y="26.4" width="9.6" height="9.5"/>
		</g>
		<g>
			<path d="M35.2,49.4c3.9,0,0.7-4.5,3.3-7.1c1-1,2.5-1.5,4.1-0.9V38H33v9.3C33,49,34.4,49.4,35.2,49.4z"/>
		</g>
		<g>
			<rect x="44.7" y="14.8" width="9.4" height="9.5"/>
		</g>
		<g>
			<rect x="44.7" y="26.4" width="9.4" height="9.5"/>
		</g>
		<g>
			<path d="M44.7,43.1c1.7,2.7-1.1,8.5,2.6,8.5c1.9,0,1-2.7,1.2-4.7c0-2.7,2.9-4.3,5.6-2.7V38h-9.4V43.1z"/>
		</g>
		<g>
			<path d="M51.8,45.7c-1.9,0-1,2.7-1.2,4.7c0,4.8-7.5,4.2-7.5-0.8c-0.1-3.7,0.3-4.7-0.4-5.5c-0.7-0.9-2.1-1-2.8-0.2
				c-0.9,0.9-0.4,2-0.6,3.6c0,5.1-7.5,5.6-8.5,0.9c-0.1-0.1-0.1-0.3-0.1-0.4c-0.2-0.4,0.7-3-1.5-3c-2,0-1.4,2.2-1.5,2.5
				c0.1,4.8-7.7,5.2-7.5-0.6c0.2-3.9-4.4-3.4-4.4-0.7v0.6c0,2.5-2,4.5-4.5,4.5H9.1v14.3h2.2c2.5,0,4.5,2.1,4.5,4.5v0.6
				c0,1.2,1,2.2,2.2,2.2s2.2-1,2.2-2.2V60c0-2.4,1.9-3.7,3.7-3.7c1.9,0,3.7,1.3,3.7,3.7v10.5c0,0.8,0.7,1.5,1.5,1.5s1.5-0.7,1.5-1.5
				v-5.7c0-2,1.7-3.7,3.8-3.7s3.8,1.7,3.8,3.7v12.7c0,0.7,0.6,1.3,1.3,1.3s1.3-0.6,1.3-1.3V64.2c0-2.8,2.1-4.2,4.2-4.2
				c2.1,0,4.3,1.4,4.3,4.2v4.7c0,1.2,1,2.2,2.3,2.2s2.3-1,2.3-2.2v-21C54.1,46.7,53.1,45.7,51.8,45.7z"/>
		</g>
	</g>
</g>
</svg>
