<?xml version="1.0" encoding="utf-8"?>
<!-- Generator: Adobe Illustrator 25.2.0, SVG Export Plug-In . SVG Version: 6.00 Build 0)  -->
<svg version="1.1" id="Layer_1" xmlns="http://www.w3.org/2000/svg" xmlns:xlink="http://www.w3.org/1999/xlink" x="0px" y="0px"
	 viewBox="0 0 512 640" style="enable-background:new 0 0 512 640;" xml:space="preserve">
<path d="M132.1,82c-2.5-1.7-1.6-5.5,1.4-6c16.8-2.8,53.9-6.1,69,14.5c10.8,14.8,21.7,22.5,29.1,26.4c2.8,1.4,2.2,5.6-0.8,6.2
	c-16.2,3.6-48.7,7.5-67.4-12.5C148.8,94.9,138.4,86.4,132.1,82z"/>
<path d="M382.3,82c2.5-1.7,1.6-5.5-1.4-6c-16.8-2.8-53.9-6.1-69,14.5c-10.8,14.8-21.7,22.5-29.1,26.4c-2.8,1.4-2.2,5.6,0.8,6.2
	c16.2,3.6,48.7,7.5,67.4-12.5C365.6,94.9,376.1,86.4,382.3,82z"/>
<path d="M250,103.1c-2.3-24.3-0.7-65.3,45.4-88.4c2.3-1.1,5.1-0.1,5.9,2.4l5.9,17.3c0.7,2-0.2,4.1-2,5.1c-9.5,5-37.7,22.9-49.9,64.3
	C254.6,106.5,250.3,106.1,250,103.1z"/>
<path d="M420.2,263c0-18-9.5-33.7-23.7-42.6c0.4-2.5,0.7-5.1,0.6-7.7c-0.9-38-29.7-49.8-46.9-53.5c-5.3-1.1-9.9,3.6-8.8,8.9
	c1.9,8.7,1.5,17.9,0.8,24.3c-0.2,2.2-3.2,2.6-4.1,0.6c-7.3-16.5-21.7-29.4-21.7-29.4c-15.5-15-36.6-24.2-59.9-24.2
	c-23.4,0-44.7,9.3-60.2,24.5c-7.8-4.2-16.7-6.6-26.1-6.6c-30.5,0-55.3,24.8-55.3,55.3c0,2.6,0.2,5.2,0.6,7.7
	c-14.2,8.9-23.7,24.6-23.7,42.6c0,14.3,6,27.2,15.6,36.3c-4.6,7.6-7.3,16.5-7.3,26c0,18.7,10.2,34.9,25.3,43.6
	c-0.3,2.2-0.5,4.4-0.5,6.7c0,26.3,20.2,47.8,45.8,50.1c2.9,21.2,19.1,38.2,39.9,42.4c7.9,17.5,25.4,29.7,45.9,29.7
	c20.6,0,38.2-12.3,46-30c20.3-4.5,35.9-21.3,38.8-42.1c25.7-2.3,45.8-23.8,45.8-50.1c0-2.3-0.2-4.5-0.5-6.7
	c15.1-8.7,25.3-24.9,25.3-43.6c0-9.5-2.7-18.4-7.3-26C414.2,290.2,420.2,277.3,420.2,263z M146.2,259.5
	c-5.3,8.6-11.2,14.1-16.3,10.9c-5.2-3.1-6.2-13.6-1-22.2c5.3-8.6,14.8-12.2,20-9.1S151.5,250.8,146.2,259.5z M159.3,213.3
	c-4.6-3.9-4.1-14.4,2.4-22.1c6.5-7.7,16.5-9.8,21.1-5.9c4.6,3.9,0.8,12-5.8,19.7C170.6,212.7,163.9,217.2,159.3,213.3z M202.8,248.5
	c-6.5,7.7-13.2,12.2-17.8,8.3c-4.6-3.9-4.1-14.4,2.4-22.1s16.5-9.8,21.1-5.9C213.2,232.7,209.3,240.8,202.8,248.5z"/>
</svg>
