<?xml version="1.0" encoding="utf-8"?>
<!-- Generator: Adobe Illustrator 25.2.0, SVG Export Plug-In . SVG Version: 6.00 Build 0)  -->
<svg version="1.1" id="Layer_1" xmlns="http://www.w3.org/2000/svg" xmlns:xlink="http://www.w3.org/1999/xlink" x="0px" y="0px"
	 viewBox="0 0 77 71.3" style="enable-background:new 0 0 77 71.3;" xml:space="preserve">
<style type="text/css">
	.st0{fill:#FFFFFF;}
</style>
<g id="그룹_1">
	<path id="패스_57" style="fill:rgb(255,255,255);"  class="st0" d="M49.2,55.2c-0.5,0.1-1,0-1.4-0.3c-0.4-0.2-0.9-0.4-1.4-0.5l-2.1-0.2c-1.6-0.1-3.1-0.1-4.9-0.2
		c-1.4,0-2.9,0-4.3,0.1l-1,0.1l-1.6-0.3l-0.3,0.2l-1.1,0.5c-0.5,0.1-1,0.1-1.5,0c-0.7-0.2-1.5-0.3-2.2-0.2c-0.6,0.1-1.3,0.2-1.9,0.3
		l-1.5,0.3l-8,0.5c-0.6,0-1.1-0.2-1.5-0.6c-0.3-0.1-0.5-0.2-0.8-0.3c-0.3,0.1-0.5,0.1-0.8,0.1c-0.2,0.1-0.5,0.1-0.7,0l-0.8-0.2
		c-0.3-0.1-0.7-0.4-1.1-1.1c-0.5-0.6-0.5-1.4,0-2c0.2-0.6,0.9-1.1,2.1-1.5c1.1-0.4,2.2-0.6,3.3-0.7l8.1-0.6c2.7-0.1,5.7-0.2,8.7-0.3
		s5.9,0,8.9,0s5.6,0.2,8.2,0.4c0.4-0.1,0.8-0.1,1.1,0c0.3,0.2,0.6,0.3,0.9,0.4l0.4,0.1c0.1,0.1,0.2,0.2,0.3,0.2
		c0.3,1.1,0.2,2.2-0.2,3.2c-0.1,0.1-0.2,0.3-0.2,0.4c-0.3,0.5-0.5,0.9-0.6,1.4c-0.6-0.1-1.2,0.1-1.6,0.5L49.2,55.2z M42.1,18.7
		c0.4,0.8,0.5,1.3,0.1,1.4c-0.8,0.1-1.6,0.2-2.4,0.1c-0.1,0.6-0.6,0.9-1.6,0.8c-2.7-0.1-5.5-0.3-8.2-0.3c-2.9,0-5.7,0.1-8,0.2
		c-0.7,0.1-1.3,0.2-2,0.2c-0.6,0.1-1.3,0.1-1.9-0.1c-2.2-0.4-3.4-0.9-3.8-1.5c-0.6-0.5-0.8-1-0.6-1.5c0-0.6,0.4-1,1-1h0.1
		c0.5,0.1,1.1,0.1,1.6,0c0.4,0,0.8-0.1,1.2-0.3c0.4-0.1,0.8-0.2,1.2-0.4c1.1,0,3.3-0.2,6.5-0.2c3.1,0,6.7,0.1,10.5,0.3
		c0.9,0,1.8,0.1,2.7,0.2c0.9,0.2,1.8,0.4,2.7,0.6L42.1,18.7z M35.1,6.2l-1.3-0.1c-1.5,0-3.2-0.1-5.1-0.2c-2.1,0-4.3-0.1-6.4-0.2
		c-2.3,0-4.5,0-6.6-0.1s-4.1,0.1-5.5,0.1C8.9,5.7,7.8,5.8,7,5.8C5.9,5.9,4.8,5.7,3.8,5.3c-0.2,0-0.2,0-0.2-0.1L3.2,5.1
		C3,5.1,2.8,5.1,2.8,5C1.9,4.7,1.1,4.2,0.3,3.6C-0.2,3.3,0,2.8,1.2,1.9c0.3-0.3,0.6-0.5,1-0.6C2.5,1.1,2.8,1,3.1,0.9l3-0.3
		c2.4-0.1,5.3-0.1,9-0.2c3.4,0,6.8-0.1,10-0.1L28.3,0l1.2,0.3c1.9,0,3.9-0.1,6-0.2c1.9,0.1,3.8,0.1,5.9,0.2l2.3,0.3
		c1.2,0.3,2.3,0.6,3.3,0.8c1.6,0.6,3,1.4,4.4,2.3C52.3,4.9,53,6,53.7,7.2c0.3,0.5,0.4,1,0.4,1.6c-0.2,0.7-0.5,1.3-0.9,1.9l-0.3,0.5
		c-0.3,0.7-0.7,1.9-1.4,3.5l-2,5c-0.7,1.9-1.3,3.6-2,5c-0.9,1.6-1.5,2.7-1.8,3.3c-0.2,0.2-0.4,0.4-0.5,0.7c-0.4,0.2-0.7,0.5-1,0.8
		c-0.4,0.3-0.7,0.7-1,1.1c-0.5,0.4-0.8,1-0.9,1.6c-0.5,0.9-1.4,1.5-2.4,1.7c-1.2,0.1-2.4,0.1-3.6-0.1c-0.8,0-1.6-0.1-2.3-0.3
		c-0.8-0.1-1.5-0.2-2.3-0.4l0.8-1l0,0l-0.8,1l0.8-1l0,0c0.3-0.5,0.7-0.9,1.1-1.3c1-1,2.1-1.9,3.2-2.6l0,0l5.5-8.5
		c2.9-5.1,3.3-9.8,0.8-11.8c-0.5-0.4-1-0.6-1.6-0.8L35.1,6.2z M24.3,33.8c0.1,0.2,0.3,0.4,0.5,0.6c0.3,0.1,0.4,0.4,0.4,0.7
		c-0.4,0.2-0.6,0.6-0.5,1c0.2,0.6,0.4,1.3,0.6,1.9c0.4,1,0.7,2,1,2.8c0.3,0.5,0.4,1,0.5,1.5c0.3,0.7,0.7,1.4,1.2,2
		c0.2,0.2,0.4,0.5,0.5,0.8c0.2,0.4,0.3,0.9,0.4,1.4c0.2,0.2,0.3,0.4,0.5,0.7c0.3,0.4,0.7,0.7,1.2,0.9c1.1-0.2,2.1-0.7,2.8-1.6
		c0.8-0.6,0.9-1.8,0.6-3.4c0-0.3,0-0.6-0.1-0.9l-0.2-0.9c0-0.6,0-1.1-0.1-1.7c0-0.8-0.2-1.6-0.6-2.4c-0.4-1.1-0.9-2.2-1.6-3.2
		c-0.6-1-1.4-1.9-2.3-2.6c-1.4-0.6-3-0.4-4.2,0.6c-0.1,0.3-0.3,0.7-0.5,1L24.3,33.8z"/>
	<path id="패스_58" style="fill:rgb(255,255,255);" class="st0" d="M50,62v2.8c0,0.5,0.1,3.7,0,4.3c-0.1,0.9-0.7,1.6-1.5,2c-0.7,0.3-1.5,0.3-2.1-0.1
		c-0.3-0.2-0.7-0.6-1-2.6C45.2,67.2,45,66,45,64.8l0,0h-2.1h-9c-0.7-0.2-1.2-0.8-1.2-1.5c-0.1-0.8,0-1.7,0.3-2.5
		c0.2-0.4,0.6-0.8,1.1-0.8h13.6C49.1,59.9,50,60.7,50,62z"/>
	<path id="패스_59" style="fill:rgb(255,255,255);" class="st0" d="M68.6,10.1c0.6,0.2,1.1,0.5,1.6,0.8c2,2-0.4,10-1,13.2l-4.7,22.1c-0.3,2-0.8,3.9-1.5,5.7
		c-1.4,3.1-5.2,1.5-5.2-2c0.1-1.2,0.3-2.4,0.5-3.6c0.3-1.7,0.8-3.6,1.2-5.5l5.2-25.1c0.3-1.6,0.8-3.1,1.6-4.6
		C67,10.1,68,9.8,68.6,10.1z M63.4,63.6c0.3,2.2,0.2,5.4-1.2,6.4c-1.3,0.9-3.9,0.5-4.4-2.2c-0.3-1.7-0.3-3.4,0-5.1
		c0.4-1.6,1.2-2,2.1-2c1.1-0.1,2.4-0.1,3.1,1.3C63.2,62.5,63.4,63,63.4,63.6z"/>
</g>
</svg>
